<svg xmlns="http://www.w3.org/2000/svg" width="500" height="500" style="width:100%;height:100%;transform:translate3d(0,0,0);content-visibility:visible" viewBox="0 0 500 500"><defs><clipPath id="o"><path d="M0 0h500v500H0z"/></clipPath><clipPath id="f"><path d="M0 0h500v500H0z"/></clipPath><clipPath id="l"><path d="M0 0h500v500H0z"/></clipPath><clipPath id="m"><path d="M0 0h500v500H0z"/></clipPath><clipPath id="g"><path d="M0 0h500v500H0z"/></clipPath><clipPath id="k"><path d="M0 0h500v500H0z"/></clipPath><clipPath id="n"><path d="M0 0h500v500H0z"/></clipPath><clipPath id="i"><path d="M0 0h500v500H0z"/></clipPath><filter id="a" width="100%" height="100%" x="0%" y="0%" filterUnits="objectBoundingBox"><feComponentTransfer in="SourceGraphic"><feFuncA tableValues="1.0 0.0" type="table"/></feComponentTransfer></filter><filter id="c" width="100%" height="100%" x="0%" y="0%" filterUnits="objectBoundingBox"><feComponentTransfer in="SourceGraphic"><feFuncA tableValues="1.0 0.0" type="table"/></feComponentTransfer></filter><filter id="q" width="300%" height="300%" x="-100%" y="-100%"><feGaussianBlur result="filter_result_0" stdDeviation="52.5 52.5"/></filter><mask id="j" mask-type="alpha"><g filter="url(#a)"><path fill="#fff" d="M0 0h500v500H0z" opacity="0"/><use xmlns:ns1="http://www.w3.org/1999/xlink" ns1:href="#b"/></g></mask><mask id="h" mask-type="alpha"><g filter="url(#c)"><path fill="#fff" d="M0 0h500v500H0z" opacity="0"/><use xmlns:ns2="http://www.w3.org/1999/xlink" ns2:href="#d"/></g></mask><mask id="p" mask-type="alpha"><use xmlns:ns3="http://www.w3.org/1999/xlink" ns3:href="#e"/></mask><g id="e" fill-opacity="0" stroke-linecap="round" stroke-linejoin="round" clip-path="url(#f)" style="display:block"><g clip-path="url(#g)" mask="url(#h)" style="display:block"><g clip-path="url(#i)" mask="url(#j)" style="display:none"><path/><path/><path/></g><g clip-path="url(#k)" style="display:none"><path/><path/><path/></g></g><g stroke-width="9.6" clip-path="url(#l)" style="display:block"><path stroke="#121331" d="M318.707 243.685v166.434H181.395V243.685M294.947 91.337l-67.358 93.745m0 59.069v70.17"/><path stroke="#08A88A" d="M181.361 208.681h46.228m44.848 11.406h46.227m-137.246-35.005h137.246m.009 59.069H181.427"/><path stroke="#121331" d="M250.041 89.339a502.594 502.594 0 0 0-58.418 3.386c-32.016 3.731-56.032 31.102-56.032 63.335l-10.343 158.261h56.113V160.362m68.68-71.023a502.594 502.594 0 0 1 58.418 3.386c32.016 3.731 56.033 31.102 56.033 63.335l11.26 158.261h-57.031V160.362m-68.68-6.528-44.905-62.5"/></g></g><g id="d" fill="red" clip-path="url(#m)" style="display:block"><path d="m181.48 315.18-.08 94.94h137.31l-.27-249.44m-68.4-71.34c-19.49-.01-38.98 1.12-58.42 3.39-32.01 3.73-56.03 31.1-56.03 63.33l-10.34 158.26h56.11l103.15-.96M250.04 89.34c19.49-.01 38.98 1.12 58.42 3.39 32.02 3.73 56.03 31.1 56.03 63.33l11.26 158.26h-57.03l.01-.96m-62.98-180.61" style="display:block"/><g style="display:block"><path d="m181.48 315.18-.08 94.94h137.31l-.27-249.44m-68.4-71.34c-19.49-.01-38.98 1.12-58.42 3.39-32.01 3.73-56.03 31.1-56.03 63.33l-10.34 158.26h56.11l103.15-.96M250.04 89.34c19.49-.01 38.98 1.12 58.42 3.39 32.02 3.73 56.03 31.1 56.03 63.33l11.26 158.26h-57.03l.01-.96M317 95.5l6.25 218.25-128.5-.25-.25-218 56-6 66.5 6z"/><path d="m317 95.5 6.25 218.25-128.5-.25-.25-218 56-6 66.5 6z"/></g></g><g id="b" clip-path="url(#n)" style="display:none"><g style="display:none"><path/><path/></g><g style="display:none"><path/><path/></g></g></defs><g clip-path="url(#o)"><g mask="url(#p)" style="display:block"><g filter="url(#q)" transform="rotate(-94 262.075 8.435) scale(2.4)"><path fill="#4AE0EB" d="M0-250c137.975 0 250 112.025 250 250S137.975 250 0 250-250 137.975-250 0-137.975-250 0-250z" class="design"/><path fill="#CA5EED" d="M113.242-295.384c97.41 0 176.5 79.09 176.5 176.5s-79.09 176.5-176.5 176.5-176.5-79.09-176.5-176.5 79.09-176.5 176.5-176.5z" class="design"/></g></g><path style="display:none"/></g></svg>